<svg xmlns="http://www.w3.org/2000/svg" viewBox="0 0 1000 707"><path fill="#774946" d="m599.5 125 8.5.5-8.5.5zm33 2 .5 1.5-4 7.5-2-.5 3-3 1-4zm-72 8 .5 2h2.5l3 3h2l11.5 11.5-.5.5-2-2-1.5.5-2.5-4.5-3.5 2.5-2.5 3.5-2.5-1.5 1.5.5 2.5-1.5 3-5-1.5.5-1.5-1.5q.75-2.25-1.5-1.5l-3-3-1.5.5-.5-1.5-2 4-1.5-3.5zm17 17 3 1 2.5 2.5q.63 5.37 4 8l1 6 1 1q-2 1 0 2l1 4-1 2 1 1v9l-1 1-1 8-4 9q-4.5 8-11.5 13.5l-4.5-1-2-3.5h4l-1.5-2.5q-1.25 2.25-2.5-.5l1.5.5 1-1 2.5 2.5-1 2 1.5 2.5 3.5-2.5-2-3 2.5-.5 2 1 1.5-2.5h-2l1-2-1-1 1-1-.5-1.5 1 1 1.5-.5q-2.25 1.25.5 2.5l1.5-1.5-.5-1.5 1.5-.5-4-3 1-1-2-2 .5-.5 5 4h1.5l1-4.5-1.5.5-1-1-1.5-.5 1.5-.5 1.5.5q-.67-2.62 2-1.5v-3.5l-1-2.5 3-1.5-1-1 .5-1.5-2.5-.5 2-1-10-2 4-.5q1.13-2.67-1.5-2v-1l6.5-.5-7-1 9-1-1-3.5-6 1.5.5 1.5-4.5-1.5 8-2-4-1 5-.5v-4h-1.5l-3.5-1.5 3-1q-2-1 0-2 .75-2.25-1.5-1.5l-2.5-1.5 2-.5q.5-2.87-2.5-4l-3 3-.5-.5 2-2-.5-.5-1.5-.5 1-1zm10.5 27q-2 2-5 1v3h6v-4z"/><path fill="#774946" d="m577.5 159 2.5 1.5-5.5 3.5-.5-2 4-1.5zm-68 4 3.5 2.5q-2 1 0 2l-.5 2.5-.5-3-2-.5 2-1-3-2zm-18 5 1.5.5-2 1 2 4h-1l-.5-1.5-1.5 4.5v4l1 2q-1.75.75-1 4l1 1v5.5l2 .5-1 3 1 3.5 2 .5q-2 1 0 2l.5 1.5 1.5-.5-1 3 5 4 1 4-2-1-5-7v-2l-5-11q1.25-4.75-1-6v-12q2.25-1.25 1-6zm4 1 4.5.5-2 1 3 1-2.5.5-3-2-2 1v-1z"/><path fill="#774946" d="M509.5 174q3.75-1 2.5 2l-14 .5 3 1-5.5.5-3.5-1.5 1.5-1.5h15zm114 2 6.5 5.5-.5.5-2-2-4.5-2zm-112 3 1.5 1.5 1 5-1.5-.5-3-1h-13l-2 3-2.5-3.5 4.5-2.5h6v1l-4.5.5 14 .5-.5-3q-.75 1.75-4 1v-1q3.25.75 4-1m0 8q4-.5 4.5 2.5.5 4-2.5 4.5l-3.5-1.5 2.5-.5 1.5.5 1-3.5-3.5-1-1 2-1-1-4.5-.5 5.5-.5zm-15 1 7.5 1.5-8.5 1.5-2.5-1.5zm-32 1 .5.5-5.5 5.5-.5-.5zm110 2 6.5 3.5-1.5-.5-5-2zm-73 2v2l1.5.5-1.5.5-2.5-1q1.31 3.33-3.5 2l1-2zm16 0 .5 2 2 .5q-4.25.25-5.5 3.5v-2l-1.5-.5 4-1.5zm3 4 1 2-6 5-.5-.5 2-2-1-1 1.5-1.5 1.5.5zm46 1-.5 1.5v3l4 4-.5.5-4.5-4.5q-.75-3.75 1.5-4.5m-65 2v2l1.5.5-5 1.5 1.5-3zm24 1q2.25 1 1.5 4l-2 .5q2 1 0 2l-2.5 5.5-.5-1.5 2-4-3 1 5-6z"/><path fill="#774946" d="m567.5 201 8.5 6.5-.5.5-2-2q-5-1.5-6-5m-8 2-.5 1.5 1 2-1.5 2.5-.5-1.5.5-1.5q-4.37-1.5-3.5 1.5 2 1 0 2l-.5 1.5-.5-1.5.5-1.5-3.5-1 1 4.5-1 1-.5 5.5-.5-5.5 1-2h-2q1.25-3.75-2.5-2.5l.5 1.5-1 2-.5 9.5-.5-13-5-.5 4.5-.5q1 2 2 0l3 1 2-2 6-1zm3 0 4.5 4.5-.5.5-3-3-1.5.5 1-1zm62 0-1 2-3 2h-2v-1zm-118 1 .5.5-2 2 1 1-1.5 1.5q-2.25.75-1.5-1.5zm12 0 .5.5-4.5 4.5-.5-.5zm-10 1v2q2.25-.75 1.5 1.5h1q-.75-2.25 1.5-1.5l1.5-.5-4 4 1 1-2.5 2.5-2 1 .5-1.5 2-4-2-3zm24 0 6.5 2.5-1 1-.5 12.5-.5-8.5-1-2 1-3.5q-4.5-1.75-3 3.5h-1l-1-2 1-2zm-12 5 .5.5-6.5 6.5-1.5-.5 2-1q-2.25-1.25.5-2.5l1 1zm8 0 .5 1.5-2.5 6.5-.5-2.5zm56 8 2.5.5-3.5 1.5h-4v-1q4 1 5-1"/><path fill="#e9353a" d="M618.5 123h14q.88-.13.5 3.5l-4 4 1 1-6.5 8.5.5-1.5-1-2q2.25-1.25-.5-2.5-4.17 1.13-2.5-3h4v-2l-2.5 1-.5-2q-3 .75-4-1.5 2-1 0-2zm10 58 .5 2h4v1.5l6 8-4 4v1.5q-3-1-2 2h-4.5l-1.5-2.5 2-3-.5-1.5 1.5-.5V187q-3 1.25-2-2.5-2-1 0-2zm-172 62h10l3.5 3.5 1 5q-8.96 15.54-21 28l-1 4.5q1.75-1.5 6.5-1l1-1h4l1-1h4l1-1h7l1-1h6l1-1h25l1 1h5l8 3h3l7 4 5.5 5.5 4 6 3 9v4l2 4v9l-2 4-1 7-5 9-5 5v1.5h-1.5l-7 7-12 8h-2l-2 2-11 4-2 2q-5.28.22-8 3h-3l-2 2h-3l-11 4h-4l-4 2h-4l-6 2h-5l-1 1h-5l-5 2h-12l-1 1-13 1-6-2-5.5-5.5q-2.17-2.83-1-9l3.5-4.5 21-7h4l2-2h5q2-3 8-2l3-2h3l4-2 10-2 3-2h3l5-3h2l18-8q9.75-5.25 16.5-13.5l3-5-1-1v-6l-5.5-6.5-9-5h-7l-1-1h-17l-1 1h-6l-12 4-11 6-11.5 8.5-13 14-18 23-23 38-3 6-1 6 1.5 1.5q3.25-.75 4 1l1-1h16l1 1h12l6 2h5l12 4 3.5 2q-1.25 3 2.5 2 6.68 4.32 6.5 15.5l-1 1q.67 4.17-1 6l-4 7-5 5v1.5h-1.5l-5 5H421q1.13 2.67-1.5 2l-17 11h-2l-6 4-4 1-1-1H384l-2-4.5v-3l4.5-5.5 5-4h1.5v-2h3v-2q2.67 1.13 2-1.5 7.93-5.57 10-17-1.75-.75-1-4l-4.5-4.5-9-3h-11l-1-1h-22l-1.5 1.5v4l-7 17-1 10-1 1-2 14-2 5v4l-2 4v3l-2 2v5l-3 6-1 6-2 2v3q-2.4 1.1-2 5l-5 9v2l-2 2-2 6q-5.17 5.33-8 13l-7.5 9.5q-2.62-.83-1.5 2.5L293.5 578H292v2h-2q1.13 2.67-1.5 2l-17 13h-2l-2 2-13 6q-5.28.22-8 3h-4l-2 2h-5l-4 2h-9l-5 2h-22l-1-1-14-1-3-2h-6l-4-2h-3l-15-5-2-2h-3l-2-2h-2l-2-2-6-2-15-9L99 568.5V567h-2v-2q-2.67 1.13-2-1.5l-12-15-8-16v-3l-2-4v-5l-1-1v-15l1-1v-4l2-4v-3l8-15 5-5V471h2v-2h2v-2q2.67 1.13 2-1.5l11.5-9.5 3-1 8-6 12-6h2l2-2 10-3 8-4 9-2 3-2h5l3-2h3l5-2h4l5-2h4l1-1h4l1-1h4l1-1h5l4-2h9l3-2h13l4-2h11l1-1q1 2 2 0 4.75 1.25 6-1h17l1-1h22l1-1h39l2.5-2.5 11-23 9-14 6-12 6-8 1-4 5-7 1-4 8-12V323q-3.62.5-5-3.5l-3-4v-7l11.5-9.5h3l2-2h3l8.5-4v-2.5l15.5-21.5q2.25.75 1.5-1.5l9-13 5.5-5.5 12-4zM257 425l-1 1-20 1-1 1h-6l-1 1h-6q-2 2-6 1l-4 2h-6l-4 2h-4l-4 2h-4l-3 2h-3l-3 2h-3l-8 3-7 4h-2l-2 2h-2l-2 2q-4-1-3 2l-4 1-16 12q-13 11-21 27v3l-2 3v3l-2 4v11l-1 1 1 1v9l2 4v3l9 17 16 13h2l12 7h2l2 2h3l8 4h3l11 4q1 2 2 0l3 2 11 1 1 1h6l1 1h12l1-1h7l1-1 10-1 11-4 6-4h2l12-9q2 1 1-2h2l11-11 10-13 3-6 4-4 2-6 2-2 8-16v-2l5-9v-3l2-2 2-7 3-5v-3l4-8 2-9 2-3v-3l2-2v-3l2-3v-3l5-13-1-2-23-1-1-1h-51q-1 2-2 0m438.5-159q4.83-.83 7 1 1-2 2 0 8.12 1.38 11.5 7.5l3 7v7l-4.5 5.5q-4.26 5.24-14 5l-1-1h-13l-3 1-9 2-2 2h-3q-1.08 2.75-4.5 2 1.13 2.67-1.5 2l-22 15-30.5 28.5-10 11v1.5q-2.67-1.12-2 1.5l-17 20-2 4.5q-2.67-1.12-2 1.5l-7.5 9.5-7 2-3-1-11-1q-2.3 3.2-9 2-3.88-2.63-4.5-8.5 1.75-.75 1-4l23-31 15-28 4-4 6-13v-5l-3-5v-3l3.5-4.5 5-1 2-2 9-3 10-6h4l2-2q5.5 1 8-1l5 2 2.5 2.5q1.83 2.17 1 7l-1 3.5-3 1.5-14 17-2 4 .5.5 5-5 8-7h1.5q-1.12-2.67 1.5-2 6.44-7.75 15.5-12-1.12-2.67 1.5-2l3-3 24-15h2l7-4h4l3-2q4 1 5-1m117 1h19l5 2h4l5 4h2l7.5 7.5 1 5.5q3.33-1.31 2 3.5l1 2.5h-1.5l-27 20-.5-1.5 1-1q-.67-4.17 1-6l-3-6.5-8.5-4h-16l-20 6-12 7-22 16-23.5 22.5v1.5q-2.67-1.12-2 1.5-6.6 5.9-10 15l-1 8 5 9.5h2.5l5 3h11l13-4 4-3 2 2q3.25-.75 4 1l9-3 2-2h2l15-11h2.5q-1.12-2.67 1.5-2l14-10 6-2h11l6.5 3.5-3.5 4.5-16 14-15 11-26 15h-2l-9 5h-2l-2 2-31 10-12 1-1 1h-13l-1-1-8-1-7.5-4-5-8.5q.75-3.25-1-4v-8l1-1v-7l3-9 14-28.5q2.67 1.13 2-1.5l6-9 5-5V327q2.67 1.13 2-1.5l5.5-5.5h1.5q-.5-2.87 2.5-4h1.5v-2h2q-1.12-2.67 1.5-2l10-9h2.5q-1.12-2.67 1.5-2l22-15h2l2-2h2l11-6 10-3 3-2h3l3-2h4l3-2h5z"/><path fill="#e9353a" d="m871.5 293 9 2 15 13h1.5v2h2v2h2v2h2q-1.12 2.67 1.5 2 4 1.38 3.5 5h2v2h2v2h2v2q2.67-1.12 2 1.5l12 12v1.5q2.67-1.12 2 1.5 3.65 2.15 4 6.5h-5q1.13-2.67-1.5-2l-9.5-7.5q.75-2.25-1.5-1.5l-7-5q-3.54 1.96-2.5 8.5l.5 1.5-4.5-3.5-2.5-3.5q-2.25.75-1.5-1.5l-1-2.5-5-1-1 3.5v6.5q-3 .75-4-1.5l-6.5-11.5q-3-.5-3.5 1.5-1.67 1.83-1 6l-2.5 3.5-1.5-3q-3 1.25-2-2.5-.5-2-3.5-1.5t-2.5 4.5q2 1 1 5l8.5 8.5 1.5.5-2.5.5-8-6-21-12-3-3H839q1.25-3-2.5-2l-8.5-6.5 1.5-2.5 13-8 23-17zm-60 34h8l7 4h2l17 11h2l22 15 8 4 14 11h2q3.9 5.1 10.5 7.5l-7.5.5-3-2h-4q-1.1-2.4-5-2l-17-9-5-4H860q1.25-3-2.5-2l-6-5-14-8-6-2-2-2-6-2h-12l-4 2H804q1.25 3-2.5 2l-26 19h-2l-5 4q-3.9-.4-5 2H760q1.82-6.29 7.5-10h1.5v-2h2q-1.12-2.67 1.5-2l21-19 10-7 6-2z"/><path fill="#bea0ac" d="m604.5 73 51.5.5-51.5.5-1 1h-10l-1 1h-8l-1 1h-6l-1 1-10 1v-1l10-1 1-1h6l1-1h8l1-1h10zm53 1h11l1 1 8.5.5-8.5.5-1-1h-11zm22 2h7l1 1 5.5.5-5.5.5-1-1h-7zm-183 11 .5 1.5-5.5 3.5-2-1v2l-2.5-1.5zm36 0-1 2-16 5v-1zm174 5 21.5.5-21.5.5zm-284 1-.5 1.5-4.5 12.5-.5-1.5 3-9zm237 0 9.5.5-9.5.5zm-241 2 .5.5-4.5 4.5-.5-.5zm167 4 4.5.5-9.5 1.5v-1q4 1 5-1m-91 3 1.5.5-12.5 6.5 1-2zm75 0 3.5.5-18.5 4.5v-1l10-3h4zm79 0h48l1 1h29l1 1H747q1.13 2.67-1.5 2l-2 1v-2h-16l-1-1h-29l-1-1h-48l-1 1h-19l-1 1-20 1v-1l20-1 1-1h19zm-189 1 1.5.5-12.5 6.5 1-2zm139 3 7.5.5-13.5 1.5v-1q4.75 1.25 6-1m-190 1 .5.5-3 3-4.5 6.5-.5-.5 2-2zm116 9 1.5.5-8.5 3.5v-1zm24 1 2.5.5-18.5 6.5 1-2zm125 11-1 2-8 4 1-2zm-265 2 .5 1.5-1 2 4-2q-1.37 4-5 3.5zm23 0 .5.5-26 26-5.5 6.5-.5-.5 5-5zm-39 4 .5 1.5-3.5 9.5-.5-1.5zm257 9 .5.5-9.5 9.5-.5-.5zm-220 1 .5.5-5.5 5.5-.5-.5zm145 6 .5.5-4.5 4.5-.5-.5zm-187 5 .5 15.5h-1zm25 4 .5.5-13.5 13.5-.5-.5zm94 1 6.5 3.5-.5 1.5-5-3zm-1 6 6.5 1q1.25 3-2.5 2-.5-2.5-4-2zm-49 4 .5.5-10.5 10.5-.5-.5zm47 1h4l3.5 1-.5 2-1-1-6-1zm-106 3 .5.5-7.5 7.5-.5-.5zm261 1 9.5 6.5-.5.5-2-2q-6.21-1.42-7-5m33 0 1 1h5l1 1 4.5.5-4.5.5q-1.25-2.25-6-1zm-189 1 6 1 2.5-1v2h-5.5l-3-1zm208 3 8.5 1.5-4.5.5q-.75-1.75-4-1zm-204 2h5.5v2l-12-.5 5.5-.5zm4 4q3.75-1 2.5 2-3.38-1-4.5 1h-5v-1h3zm65 2 6.5 2.5-3.5.5-3.5-1zm-62 2q2.63-.67 1.5 2l-8.5 2v-1zm249 0 7 1 1.5 1.5-1.5 1.5-9 2v-1l9.5-2.5-7.5-1.5zm-190 3h2l4.5 2.5-1.5.5-5-2zm-192 1 .5.5-6 6-5.5 6.5-.5-.5 5-5zm134 0 2.5.5-11.5 6.5 1-2zm56 2 7.5 5.5-1.5-.5-6.5-3.5zm-53 1 2.5 1.5-11.5 7.5-.5-.5 2.5-2.5zm3 3q2.25-.75 1.5 1.5l-8.5 7.5-.5-.5 6-6zm46 0h2l6.5 6.5-.5.5-2-2q-5-1.5-6-5m-42 2q3.25 1.75-.5 3.5v1.5q-2.67-1.13-2 1.5l-4.5 4.5-.5-.5zm209 0-1 2-10 2v-1l10-2zM563 202q3.63-.5 5 3.5l4 5-.5.5-7-7q-2.62.67-1.5-2m108.5 0-1 2-10 5 1-2zM527 204q2.67-1.12 2 1.5l-6.5 9.5.5-1.5zm32 0 3 1.5 5 8-.5.5-3.5-3.5-4-5zm-27.5 2 1.5.5-5.5 11.5-.5-1.5 3-9zm23.5 0 3 1.5 3 8h-1zm-19.5 1 1.5.5-3.5 10.5-.5-3.5q2.25-1.25 1-6zm15.5 0q3-1.25 2 2.5l3 9h-1zm159.5 0 2.5.5-8.5 2.5v-1zM539 208l2 .5-1 1v6l-1.5 4.5-.5-6.5q2.25-1.35 1-5.5m4 0 2 .5v12h-1q.75-3.25-1-4zm4 0q3.67-1.35 2 4.5 2.25 1.25 1 6h-1zm-182.5 4 .5.5-4 4-3.5 4.5-.5-.5 3-3zm276 5 1.5.5q-5.54 3.96-13.5 5.5v-1l7-2zm-244 1 .5.5-4.5 4.5-.5-.5zm51 1 10 2 2.5 1.5-1.5.5-1-1-10-2zm147 13 3.5.5-4.5 1.5h-4v-1q4 1 5-1m-81 2 16 1 1 1h14l1 1 11.5.5-11.5.5-1-1h-14l-1-1-16-1zm69 0 5.5.5-5.5.5-1 1h-6v-1h6zm-24 2 15.5.5-15.5.5zm-178 2 .5.5-3 3-3.5 4.5-.5-.5 3-3zm-72 6 9.5.5-9.5.5zm-23 4 1.5.5-13.5 4.5v-1zm156 0 .5.5-5.5 5.5-.5-.5zm253 17 9.5.5-9.5.5zm118 1 19.5.5-19.5.5zm35 6 8.5 8.5-.5.5-8.5-8.5zm-581 4 1.5.5-9.5 4.5v-1zm153 0 .5.5-2 2-2.5 3.5-.5-.5 2-2zm-69 2 .5.5-2 2-2.5 3.5-.5-.5 2-2zm116 1 6.5.5-11.5 1.5v-1q4 1 5-1m48 0h3l5.5 2.5-1.5.5-4-2h-3zm-270 9-1 2-11 7 1-2zm-47 4 .5.5-2.5 2.5-8 5 1-2zm88 0 .5.5-2.5 2.5-6 4-.5-.5 2.5-2.5zm307 0 1.5.5q-3.51 2.99-9.5 3.5l-1.5 1.5-.5 1.5-.5-1.5 2.5-2.5q5.28-.22 8-3m213 1h14l3.5 1.5-2.5.5-1-1h-14zm-173 3 .5.5-4.5 4.5-.5-.5zm194 0 4.5 4.5v2h-1v-2l-4-4zm61 3 5.5 5.5-.5.5-5.5-5.5zm-589 6 .5.5-3.5 3.5-3 2-.5-.5 2.5-2.5zm285 2q2.5 1 1.5 5.5l-1.5 2.5-.5-1.5q2-1 1-5zm313 0 19.5 19.5-.5.5-19.5-19.5zm-175 4 .5.5-4.5 4.5-.5-.5zm-215 2 1.5 1.5v7h-1q.58-6.75-.5-8.5m75 5 .5 1.5-3.5 5.5.5-1.5zm-380 1 .5.5-4.5 4.5-.5-.5zm628 0 .5.5-3 3 .5 1.5-1.5-1.5zm-587 1-1 2-4 2 1-2zm187 0 .5.5-12.5 12.5-.5-.5zm280 3 .5.5-5.5 5.5-.5-.5zm39 1 .5.5-5.5 5.5-.5-.5zm170 6 11.5 11.5-.5.5-11.5-11.5zm-729 1 .5.5-4.5 4.5-.5-.5zm551 0 .5.5-12.5 12.5-.5-.5zm-486 4-1 2-5 3 1-2zm161 0 .5.5-4.5 4.5-.5-.5zm-202 1-1 2-11 5v-1zm686 1 5.5 5.5-.5.5-5.5-5.5zm-329 1-.5 1.5-6.5 11.5.5-1.5q2.01-6.99 6.5-11.5m-280 2 .5 2.5-2.5 6.5-.5-2.5zm437 5 .5.5-4.5 4.5-.5-.5zm-351 1-.5 1.5-2.5 4.5.5-1.5zm30 0 .5.5-4.5 4.5-.5-.5zm376 0 .5.5-7.5 7.5-.5-.5zm-321 4 1.5.5-11.5 4.5h-3v-1h3zm150 1 .5.5-4.5 4.5-.5-.5zm265 0 4.5 5.5-1.5-.5-1.5-.5 1-1-3-3zm-189 3-.5 1.5-6.5 13.5-.5-1.5zm142 0 .5.5-4.5 4.5-.5-.5zm-59 3 .5.5-8.5 8.5-.5-.5zm13 9-1 2-5 3 1-2zm-496 1q1.17 7.33 5.5 11.5l-.5.5-2.5-2.5-3-7zm-112 9-1 2-10 3h-3v-1l7-1zm542 0 5.5 4.5-1.5-.5-4.5-3.5zm-396 2 .5 1.5-4.5 4.5-.5-.5zm583 1 .5 2-8-.5 6.5-.5zm-611 1 5.5 4.5-1.5-.5-4.5-3.5zm431 1 3 1 9.5.5-9.5.5-3-1zm-185 5 .5.5-3 3-1.5 6.5-.5-3.5 1-3zm-162 4-.5 1.5-2.5 4.5.5-1.5zm-6 19 12.5.5-12.5.5zm-73 1 25.5.5-25.5.5zm-23 1 19.5.5-19.5.5zm-14 1 11.5.5-11.5.5zm-12 1 8.5.5-8.5.5zm184 7 4.5 4.5-.5.5-4.5-4.5zm-251 4 3.5.5-7.5 1.5v-1q3.25.75 4-1m80 1h44l1 1h16l1 1 5.5.5-5.5.5-1-1h-16l-1-1h-44zm-13 1 11.5.5-11.5.5zm84 3 .5 2.5-3.5 8.5-.5-1.5zm70 3q3.25 1.75 3.5 6.5h-1v-2l-3-4zm-216 5 2.5.5-8.5 2.5v-1zm-55 3 1.5.5-6.5 3.5 1-2zm46 0 1.5.5-6.5 2.5v-1zm259 5-.5 1.5-4.5 6.5-.5-.5 2-2zm-329 8 .5.5-2.5 2.5-3 2-.5-.5 2.5-2.5zm292 0 .5.5-6.5 6.5-.5-.5zm-304 9 .5.5L86.5 473l-.5-.5zm223 8 .5 1.5-3.5 8.5-.5-1.5zm-207 22 .5 1.5-3.5 6.5.5-1.5v-2zm222 23 .5 2.5-3.5 6.5-.5-1.5zm-253 31 4.5 6.5-.5.5-2.5-2.5zm13 18 7.5 7.5-.5.5-7.5-7.5zm209 4 .5.5-13.5 13.5-.5-.5zm-157 2 10.5 4.5-1.5.5-9-4zm141 13 .5.5-3.5 3.5-7 5-.5-.5 2.5-2.5zm-66 1 2.5.5-3.5 1.5h-7v-1h7zm-76 15 8.5 3.5-1.5.5-7-3z"/><path fill="#0c0c0c" d="m559.5 136 .5 1.5-4 3 1 2-1 3.5 6-1-1-2.5h3l-3 5q1 2.25 4 1.5-1.67 4.13 2.5 3 2.25 1 1.5 4l3 1.5q-.5 3 1.5 3.5l1.5.5-1 3 2 3q-2 1 0 2l.5 1.5 4-2-1 2q-3-.5-3.5 1.5-.5 3 1.5 3.5l4-1 2.5 1q-1.25-3 2.5-2l1.5-.5-1 1 2 2-.5.5q-2.25.75-1.5-1.5h-1l-.5 1.5H576v3l5 .5-2.5 1.5-2-1-1.5 1.5v3q-2.6 1.82-2 5.5h-2v3q-2.67-1.12-2 1.5l-4 4v1.5l-3.5 2-12 4h-11l-14.5-6-1.5-3q-2.25.75-1.5-1.5l-7-9q2-1 0-2l-2-7q2-1 0-2l1-3-1-3 1-1 1-7-.5-1.5q1.25 2.25 2.5-.5V157h3q-1.5-3.75 1.5-3l4-4 16-7 2 1 3-2 3 2 2-1 3 2 2.5-2.5-1-1q-.5-3 1.5-3.5 3.5 1 3-2m-6.5 13-3 1-5 6q-2 8 2 11l4 2h7l3-2 3-6-2-7-6-5z"/><path fill="#0c0c0c" d="m566.5 144-.5 1.5.5 1.5 2-2 .5.5q-2 4.5-4 1zm6 2 2.5 1.5-1.5 2.5-3 2-1-2q1.25 2.25 2.5-.5l-2-1zm5 4 2.5 2.5-.5.5-4 2 .5-1.5-1-1zm4 6 1.5 2.5-1.5-.5-1.5.5.5 1.5-3-1v2l-2.5-1.5 4.5-1.5zm2 5q2.63-.67 1.5 2-3.81-1-5 1.5.67 2.63-2 1.5-1.12-2.67 1.5-2zm-82 5 .5 2h4v1.5l-1.5-.5-4.5-.5zm-4.5 6h3.5l7.5 2.5-3.5.5q-1-2-2 0l-6.5-.5zm79.5 13 1 1h6.5q1.25 3-2.5 2-1.35-2.25-5.5-1zm-66 8 1.5.5-5.5 3.5H503l.5-2 2 1zm64 2 3 2 2-1v1l-1.5.5 2 .5q-1.12 2.67 1.5 2v1q-5.54-1.83-7-6m-61 2 .5.5-5.5 5.5-3 2-.5-.5 4-4 .5-1.5 1.5.5q-.75-2.25 1.5-1.5zm-13 2 1.5.5q-1.88 3.13-6 2.5l-.5 2-1.5-2.5 1.5.5 1-1q3.5.5 4-2m70 0 4 3q5.12-.63 6.5 2.5l-1.5.5-3-2 2 4-8.5-7.5zm-64 1 .5.5-2.5 2.5q-2.25-.75-1.5 1.5l-1.5-.5-1.5-.5q4.5-.5 6.5-3.5m9 1 .5 1.5-4.5 4.5-1.5-1.5 1.5-1.5 1.5.5V203q2.75 1 2.5-2m51 0q4 1.38 3.5 5 2.67-1.13 2 1.5l.5 1.5-6.5-6.5zm-3 4 11.5 11.5-1.5 1.5-2 1-.5-2 3-.5-4.5-3.5-.5 1.5.5 1.5-2.5-3.5 1-2h-2l.5-1.5-2.5-1.5zm-56 5 1.5.5-4.5 4.5H502q-1.13-2.67 1.5-2l1.5.5zm20 0-.5 1.5v2l-3 3 2 1-2 1-1-2zm28 0 3.5 5.5-1.5.5-1.5-1.5zm-35 1 1 2q-1.25-2.25-2.5.5l2 1-1.5.5-1-1-1.5.5zm21 1 .5 5.5-1 2 .5 1.5q-3 .87-1.5-3.5l1-1zm5 2 2.5 6.5-3 .5zm84 224 9 1q6.83 2.67 10.5 8.5 3.67 4.33 2 14-2.11 7.89-8.5 11.5l-9 3h-4l-9-3-6.5-6.5-2-5v-9q2.11-7.89 8.5-11.5zm-1.5 8-2 1-4 4-2 5v3l2 5 6 4q6 1 10-1l5-7v-5l-1-3-6-6zm136.5-8 8 1 8.5 5.5-4 4v1.5h-1.5l-5-4q-3.25.75-4-1l-6 2-4.5 4.5-1 3v5l5.5 7.5 3 1h6l7-4 3.5 5.5-5.5 4.5-10 2q-1-2-5-1l-8.5-5.5-4-7v-11l5.5-8.5 7-4q4 1 5-1m96 0h5l1 1 6 1 7.5 6.5 3 8v5l-2 6-5.5 6.5-6 3-8 1q-1-2-5-1l-6-3-3.5-3.5-3-5-1-9 3-8 4.5-4.5zm-.5 8-4 2-4 6q-1 6 1 9l7 5q8 2 11-2l3-5q1-8-2-11l-4-4zm-388-7h21.5q6.75 2.25 10.5 7.5l3 7v6l-3 8-4.5 4.5-7 3H473zm8 7v22h12l2-1 4-5v-9l-1-2-5-5zm36.5-7q4.5-1 5.5 1.5v5l-4.5 5.5-3.5-.5q2.4-1.1 2-5-2-1-1-5zm16.5 0h21.5l6.5 4.5 2 5v6l-2 5-2.5 2.5-7 3H542v10h-8zm8 6v13h10l4-3q1-6-1-8l-5-2zm31-6h22.5l7.5 5.5 1 2v10l-6 8 7 10-10 .5q-.93-6.45-5.5-10H581v10h-8zm10 6-2 2v10l2 1h9l2-1 2-2 1-3-1-3-2-3q-4 1-4-1zm79-6h21.5q6.75 2.25 10.5 7.5l3 7v6l-3 8-4.5 4.5-7 3H662zm8 7v22h12l2-1 4-5v-9l-1-2-5-5zm36-7h7.5l.5.5v23l4.5 5.5q9.5 2 11.5-3.5l1-3V439h7.5l.5.5v24q-1.82 7.18-7.5 10.5l-6 1-1 1h-4q-1-2-5-1l-6.5-4.5-3-5zm81 0h30.5q1.12.13.5 5.5l-1.5 1.5H807v28.5l-.5.5H798v-28.5l-.5-.5H787zm39 0h8.5l.5.5V475h-8.5l-.5-.5zm67 0h7.5l4.5 4.5 13.5 18.5.5-23h7.5l.5.5V475h-7.5l-3.5-3.5-14.5-19.5-.5 23h-7.5l-.5-.5z"/><path fill="#3e4087" d="M604.5 74h51l1 1h12l1 1 17 1 1 1 12 1 1 1h5l1 1 19 3 4 2 8 1 1 1 11.5 2.5-21.5.5-1 1h-58l-1 1h-17q-1.25 2.25-6 1l-3-1-3 1-31 2-1 1h-8l-1 1h-7l-1 1-17 2-5 2h-4l-1 1-11 2-6 3h-3l-27 10-24 12-26 17-19 15-30.5 29.5-47 58-36 50-12 21-7 15-5 16-1 12-1 2q1.5 3 7.5 1.5l5.5 4.5 1 2q-2 1-1 5l-4.5 4.5-6 2h-7l-7-3-3.5-3.5-5-10q1.33-6.83-1-10l1-1 1-11 5-16 16-34-1.5.5-20 15-33 22-45 26-4 1-29 14-13 4-9 1-1-1h-7l-3-1q-6.83-2.67-10.5-8.5l-1-2v-13l2-2v-3l2-4 3-3 3-6.5q2.67 1.13 2-1.5 3.5-1.25 3-4.5 3.63.5 5-3.5-.75-2.25 1.5-1.5l8-8 20-15 48-30 30-15 36-12q1 2 2 0 3.25.75 4-1h21l5 2q1-2 2 0l8 1q32.16-48.84 74-88 22.14-20.86 48-38l5-2 17-11 25-12 37-13h3l9-3h4l1-1h4l6-2h5l1-1 15-1 1-1h10zM297 267q-1 2-5 1-1 2-2 0l-21 7-21 11-29 19-22 18-15 16-7 12 2 2 7-1 11-6h2l52-28 25-16 6-5 3-1 29-22 3-4-1-2q-5 1-5-1z"/><path fill="#3e4087" d="m489.5 91-1 2-16 8-29 19q-20.95 16.55-38.5 36.5L389.5 176l-.5-4.5-1-1v-15l1-1v-7l1-1 1-7 9-20q9.03-14.97 21.5-26.5l-.5 1.5-8 24-5 11-1 5.5h1.5l10-8 19-12 24-12h2l5-3h2l2-2 5-1 2-2h2zm160 12h47l1 1h28l1 1 16.5.5-3.5 1.5h-4l-3 2-15 3-4 2h-3l-4 2h-3l-17 6-7 4h-2q-23.28 9.72-38.5 27.5l-4 7.5h1.5l7 6 25 15 15 11h1.5q1.13 2.67-1.5 2l-2 2-26 13-2 2h-2l-9 5h-2l-13 6-6 1-8 4h-3l-12 4-9 1-1 1h-6l-1 1-35 2-1-1h-15l-1-1-16-1-1-1h-5l-1-1h-5l-1-1h-5l-1-1-9-1-1-1-11-2-4-2-19-4-4-2-11-2-12.5-4 4-7.5 17-20V183q2.67 1.13 2-1.5 15.54-16.96 34.5-30.5l24-15h2l24-12 18-6h3l15-5 13-2 1-1h5l1-1q4.75 1.25 6-1h6l1-1h6l1-1 21-1 1-1h20zM627 122l-1 1h-9l-4 2h-13l-1 2h-10v2h-7l-2 2h-7q-2 4-8 2l-6 4q1 2-2 1-1 2-2 0-4-1-3 2l-1 3 3 1 4-5q2-1 1 2l-2 1v2q-1 3 3 1l1-4h2l1-1q3-1 2 2 1 2 3 0l1 3-4 5-3-1 4-3-1-2q1-3-2-2l-2 3-2 1q-5 2-4-2v-1l-2 2-3-2-3 1v-1q3 1 1-3-3-1-2 2h-4v2l-2-1-16 7-5 4q-1 2-2 0-3 0-4 2h2v2l-3-1h-2l2 5h-1q1-3-2-2-1-2-2 0l-3-1 2 5-2-1-4 1v2l-1 3h5v1q-5 1-5-1l-5 1 3 2-2 3-3-1-1 3 7 2q3 1 4-1 3-1 1 3l-6-1-1-1-1 3-4 2q2 1 3 4l2-4h9l1 2-1-1q-3-1-2 2h-1v-2q-5-1-3 3l-7 2 5 1q1-2 2 0l7-2 1 2-3-1v2l-2-1v2l-1-1-1 2-3-1v2l-2-1v2l-1 1 4 1v-1h2l2-1v4l-1-1-3 2h-2v1q2-1 1 2 3-1 5 1v-2h2l-3-1 4-2 2 4-1-1-2 3-3 2 4 2q2-1 0-2l1-1 2 3h-1l-3 4 2-1 3 1 2-3 1 2v-4l4-1-1 2 1 1h-1v2q-3-1-2 3v1l4-2 3-3v-2l2-1-1 3q-2 1 0 2l-3 1h2l-1 2 1 2 3-2q2-1 0-2h2l1-1-1 2q1 2-2 1v2l2-1 1 1h4l-2-1q-1-3 2-2l-1-1 2-1h1l-1 1v6h1l2-2 1 1h1v1h5l-1-1 1-2 1 3q1 2 3 0 3-1 5 1l4-3v2h9l1-1q1-3-1-2v-1l-1-1v-2q-3 1-2-1-2-1 0-2l-2-1q-1-3 2-2v2l5 6q3 1 1 3l5 1h12l7-3h4l2-2h6v-2h5v-2h4l6-4h3l10-7q3 1 2-2h3v-2q3 1 2-1 3-2 1-3 1-4-2-3l-1-4-4-2-11-9q-3 1-2-2h-1l-4-4q1-3-2-2v-6l4-7v-2l8-9q-1-3 2-2l1-2q-1-3 2-2l4-7v-7zm-136 47-1 1q-4-1-3 2h-1l-5 4q-3-1-2 2l-3 1-3 4q-3-1-2 2h-3q1 3-2 2v2h-1l-7 7q-3-1-2 2h-2v2q-3-1-4 2h4l4 3q4-1 6 2h5l2 2q5-1 7 2h5l2 2q6-1 8 2h6l2 2q2 1 1-2h3l-1-2q-3 1-2-1l-3-3q2-2 0-3l-3 1 1-3-3-4v-3l-2-4v-6h-2l1-5-1-3v-2l3-3z"/><path fill="#3e4087" d="m573.5 147 1.5 2.5-1.5-.5-1.5.5q2.25 1.25-.5 2.5l-1.5-.5q.67 2.62-2 1.5v-2h2q-1.12-2.67 1.5-2zm2 4 1.5 1.5q-2 1 0 2 .75 2.25-1.5 1.5-.75 1.75-4 1v-1l1.5-.5-1-1zm5 11 4.5 2.5-1.5-.5q-2.62-.67-1.5 2h-2l-1-2.5zm4 5 1.5.5q-2 1 0 2 .67 2.63-2 1.5l-.5-2-1.5 3q-4.6 1.25-6-1.5l1.5.5 2.5-.5-.5-1.5 1.5.5.5-1.5q1.5 2.5 3-1m-78 1 .5 2 2.5-1 2.5 1.5-1.5.5q-1-2-2 0l-2.5-1.5zm171 6 9 1 6 2h5l6 2h5l1 1h4l6 2h5l6 2h5l1 1h4l1 1h4l9 3h5l1 1h4l4.5 1.5-11.5 3.5h-3l-1 1h-3l-6 3-8 1-4 2-19 4-18 6h-4l-7 3h-4l-6 2 1-2 12-7 18.5-13.5-27.5-18.5zM584 185q3-1.25 2 2.5l3-1-4.5 3.5-2.5-1.5 2-.5zm-2.5 6 2 1 2-1-.5 1.5 1 1q.5 3-1.5 3.5l-.5-1.5.5-1.5-3 1-.5-2-3-.5zm-10 3 1 1 1.5-.5 2 3-.5.5-2-2q-3.81-.69-2-2m9 3q.5 2.5 4 2l1.5-.5-3 3 .5 1.5-1.5-3q-3.52 1.13-1.5-3m-8 2 4.5 2.5-3 1q1.25 2.75 2.5.5l2 2 3-1 .5 1.5-2 2 .5 1.5-1.5-1.5.5-1.5-2-1-1 1-4-4-2.5-1.5 1.5.5 1.5-.5zm-61 4 2 2 1.5-.5-2.5 2.5-.5-.5 1-1-2-2zm9 0 1.5.5-3 2q2.25 1.25-.5 2.5l-1.5-1.5zm50 1 3.5 2 1.5 3q1.25-2.25 2.5.5l-3 1.5-.5 2-1.5-1.5.5-1.5-3.5-2.5 3 1-1.5-2.5q-2.79.67-1-2m1 8 3.5 3.5-1.5 1.5-3.5-.5 2-3zm-15 3 3.5 1.5-.5 1.5 2.5 1.5h-5q2.5-1.5-1-3z"/><path fill="#fdfbfb" d="M601.5 68h57l1 1h20l4 2h11l4 2h6l1 1h4l1 1 19 3 5 2h4l5 2h4q2.96 3.04 9 3l2.5 2.5q1.75 7.75-2.5 9.5l-3 1-21.5.5 17.5.5 2.5 2.5 1 5-3.5 4.5-4 2-13 2-1 1-7 1-3 2h-4l-4 2h-3l-23 8-4 3h-3l-21 12-13.5 11.5-1 3 12.5 9.5 10.5 5q-1-4.69 2.5-6 2.17-1.83 7-1l1 1 9 1 5 2h6l4 2h8l3 2 10 1 1 1 9 1 6 2h5l10 3h5l1 1 10 1 3 1 2.5 2.5v8l-2.5 2.5-10 2-1 1h-4l-3 2-7 1-4 2h-3l-9 3h-4l-6 3h-5l-7 3-11 2-3 2h-4l-16 5h-7l-2.5-1q-1.75-2.37-1-8.5l2-2-.5-.5-15 8h-2l-4 3h-3l-10 5-8 2-3 2h-3l-9 4h-4l-4 2h-4l-6 2-13 1-4 2h-17l-1 1h-12l-1-1h-15l-3-2-18-1-1-1h-5l-1-1h-4l-1-1-19-3-5-2h-4l-10-4h-5l-11-4h-3l-15-5h-3l-4.5-4.5v-8l5-7-.5-.5-7.5 7.5-28 34-3 4v2l-4 4v1.5q-2.67-1.12-2 1.5l-33 44-2 3v2l-3 3v2l-10 15-7 15-3 11-2 3-1 9 1.5 1.5 4 1 5.5 5.5 1 3v8l-2 5-3.5 3.5-7 4q-3.25-.75-4 1h-8l-1-1-6-1-5.5-3.5q.75-2.25-1.5-1.5l-4.5-5.5q.4-3.9-2-5l-1-3v-7l-2-4v-3q3.33-3.67 2-12l3-7 2-9 4-8v-3l-.5-.5-3 3-22 14-3 3q-14.02 5.98-25 15-5.9 1.1-9 5l-4 1-3 3-4 1-14 8h-2l-4 3-7 2-2 2h-2l-8 4h-3l-7 3h-4l-4 2h-6l-4-2h-6l-3-1q-8.08-2.92-12.5-9.5l-3-8v-10l1-1 1-7 8-14 18.5-19.5 20-16 3-1 3-3 3-1 26-18 4-1 3-3 14-8 24-12 30-11h4l3-2q4 1 5-1h9l1-1h13l1 1 15 1 24.5-33.5 23-26v-2l-1-1q1.25-4.75-1-6v-17l1-1v-6l1-1 1-8 8-19 11-17L417.5 87q2.5-2 8-1l2.5 2.5 1 6-2 3-6 19.5 20.5-12h2l17-9h2l14-7h2l18-8 3 1 2.5 2.5 1 4-1 3.5 11.5-5 15-5h3l9-4h3l13-4 10-1 4-2h9l4-2h17zm3.5 5-1 1h-10l-1 1-15 1-1 1h-5l-1 1q-5-1-6 1t-2 0l-4 2h-4l-9 3h-3l-25 8-33 15-37 23-35 29q-42 39-74 88-4 1-4-1h-7l-1-1h-8l-1-1h-9l-1 1h-9q-1 2-5 1l-23 7-12 6h-2l-24 12-35 21-26 18-17 14-2 3-2 1-11 13-8 16v11l2 4q4 5 11 8l10 1 1 1 9-1 10-3 2-2 15-5 28-14 48-29 28-19 12-10 1 1-6 10v2l-11 23-4 12-1 12-1 1 1 2v8l1 3 5 8 4 3 8 3h6l7-3 4-4v-7l-6-6h-7l1-12 6-18 8-17 11-19q39-57 83-108 17-19 37-35l28-20 19-11 4-1 11-6 12-4 5-3 15-5 15-3 1-1h4l5-2h5l1-1h5l1-1 8-1q1-2 2 0l6-2 21-1 1-1h15l1-1h29l1-1h58l1-1h24v-2l-14-3-1-1h-4l-1-1-13-2-1-1h-5l-1-1-8-1q-1-2-2 0l-4-2-11-1-1-1-17-1-1-1h-12l-1-1zM497 87l-12 6h-2l-2 2-14 5-17 8-2 2-20 10-3 3-13 8-3 3h-1l7-21 4-8 2-8 2-3v-3q-15 13-25 31l-8 18-1 7-1 1v7l-1 1v15l1 1 1 6 17-21q17-20 38-36l17-12 36-20zm152 15-1 1h-19l-1 1h-11l-1 1h-8l-1 1h-8q-2 2-6 1l-1 1h-5l-4 2-19 3-4 2-11 2-15 5-2 2-5 1-18 9h-2l-14 8-25 18-11 10-24 26-11 16 2 1 10 2 6 3 7 1 4 2 23 5 1 1h4l1 1h4l1 1 7 1q1 2 2 0l3 2 10 1 1 1h5l1 1 16 1 1 1h14l1 1h11l1-1h16l1-1h7l1-1 11-1 12-4h3l27-9 35-17q5-6 14-8l1-3h-1l-19-14-13-7-15-11h-2l4-7 15-14 22-13 27-10 9-2 3-2 19-4 1-1 9-1 1-1q2 1 1-2h-19l-1-1h-29l-1-1zm25 70v2l31 21-33 23 1 1 4-2h3l3-2 27-6 4-2 15-3 1-1h3q1-4 3-1l11-4 23-5 1-1-1-2-10-1-1-1h-5l-6-2h-4l-1-1-10-1-1-1h-5l-3-2-14-2-1-1h-5l-6-2h-5l-6-2h-5l-1-1q-5 1-7-1"/><path fill="#fdfbfb" d="M550.5 151q8.75-1.75 10.5 3.5 2 2.5 1 8l-3.5 4.5q-2.5 2-8 1l-4.5-5.5v-6zm-94 85h11l5 2 2.5 2.5 3 6v7q-5.42 11.58-14 20l5.5.5 4-2q4.75 1.25 6-1h30l8 3h4l10 4 10.5 9.5 4 6 4 12q-1 4 1 5v18l-3 8v3l-8 11v1.5h-1.5l-8 8-15 11-6 2-2 2-5 1-11 6-10 2-2 2h-3l-5 2h-4l-3 2h-3l-5 2h-5l-1 1-10 1-1 1-16 1-1 1h-20q-5.89-1.61-9.5-5.5l-4.5-7.5q-2.94 2.56-3.5 7.5l-3 3-3 8.5 26.5 1 4 2 11 1 9 3 9 6 4.5 4.5 4 9v10l-5 12-11.5 13.5-12 9-16 8-2 2q-3.9-.4-5 2h-14q-8.04-3.46-6.5-16.5l5.5-8.5q5.17-1.83 8-6l3.5-1 1.5-3q2.25.75 1.5-1.5l5-6 1-3-2.5-3.5-7-1-1-1h-9l-1-1H364v2.5l-2 3-4 12-1 9-1 1v4l-2 6v4l-2 4-1 8-3 8v3l-12 32-16 28q-11.42 16.58-26.5 29.5l-22 15-20 9h-3l-4 2h-4l-3 2-15 1-1 1h-30l-1-1h-8l-1-1h-6l-5-2h-4l-3-2h-4l-6-3-5-1-5-3-7-2-6-4h-2l-16-11-3-1-6.5-5.5q.75-2.25-1.5-1.5L89 568.5l-10-13q-1.73-6.27-6-10l-1-4-2-2-1-6-2-4v-6l-1-1v-21l1-1v-5l1-1 1-6 3-4 3-8 3.5-4.5q2.25.75 1.5-1.5L90.5 459H92q-1.12-2.67 1.5-2l7-6 28-16 15-5 2-2h4q1.4-2.6 6-2l2-2h4l1-1 7-1 4-2h4l8-3h4l6-2h5l6-2h5l1-1 14-1 1-1h7l1-1h8l1-1h9l1-1h14l1-1h21l4-2h42l1.5-1.5 15-30 3-3v-2l11-17 14-25-5-6-1-3v-9l6.5-9.5 22.5-10.5 15.5-22.5q2.25.75 1.5-1.5l9-13 7.5-7.5q5.37-.63 8-4l7-1zm3.5 6-18 6-6 6-19 25-8 13-2 2-10 3-2 2h-2q-3 4-8 4v2l-4 5v5l3 5q1 4 5 3l-9 18-5 7-5 11-17 27-11 23-1 1h-42l-1 1h-22l-1 1h-13l-1 1h-11l-2 1q-1 2-2 0-4-1-4 1h-8l-5 2-14 1-1 1-10 1-1 1h-6l-5 2-9 1-13 4h-3l-3 2h-3l-3 2h-3l-3 2h-3l-3 2-13 4-24 13-12 9q-10 8-17 19l-8 19 1 2-2 4v4q2 1 0 2v6l2 6v4l6 16 4 7 11 14 20 17 12 8 24 12 12 4h3l4 2 9 1 1 1h5l1 1h7l1 1h28l1-1h6l1-1h6l4-2 7-1 20-8 15-9 10-8q13-12 24-27l7-11 13-26v-3l7-18v-3l3-7 2-11 1-1v-4l2-6v-4l1-1 1-10 8-22h22l1 1h10l10 3 2 3 2 5-1 5-4 7q-7 8-17 14l-4 6q-1 4 1 6l5 3 7-1 18-9 14-11q2 1 1-2h2v-1l8-9 4-11-1-8-2-4-7-7-15-6-10-1-1-1h-12l-1-1h-22v-4l14-24v-2l15-23 17-21 15-15 15-10 9-3 2-2 7-1 1-1h8l1-1 16 1 13 6 4 6q1 8-2 12l-10 9-15 8-12 4-3 2h-3l-10 4h-3l-6 3-15 3-4 2-11 2-1 1h-3l-3 2h-3l-4 2-4 4q0 3-2 5 2 0 1 4l4 5v1l7 3h16l1-1h7l1-1h8l1-1 11-1 1-1 9-1 4-2h4l4-2h3l5-3 9-2 13-6h2l2-2h2l13-8 10-8 9-11 5-14v-15l-1-1v-3l-3-10-4-6-5-6-11-6-7-1-1-1h-4l-1-1h-26l-1 1-14 1-6 2h-4l-1 1h-4l-2 1q8-14 18-24l4-7-1-6-2-3-3-1zm17 66-1 1h-9l-13 4-13 7-3 3q-3-1-2 2l-3 1-4 5-2 1q-4 2-5 7l-3 1v2l-12 15-3 3h1l6-1 3-2 8-1 8-3h3l1-1h3l1-1h3l4-2h3l15-5 23-10 9-6 5-5q2-2 1-6l-7-6-6-1-1-1h-7zm212.5-48h19l8 4 2.5 2.5 3 4 4 9v10q-2.25 6.75-7.5 10.5l-11 6h-9l-1-1h-11l-10 3-2 2-8 3-6 5h-2q-22.76 16.24-41.5 36.5l-27 31-8 11-1 3.5q-2.67-1.12-2 1.5l-2.5 3.5-6 3-9 1-1-1h-6l-3-1-6 3h-5q-6.17-2.33-9.5-7.5l-2-10 1-1 1-6 4-4 20-29 1-3 3-3v-2l3-4v-2l4-7 7-9 5-12-3-6v-5l2-6 3.5-3.5 8-2 14-8h3l8-4q4 1 5-1h12l7.5 5.5 3.5 5.5 20-14h2l3-3h2l2-2h2l7-4h3zm5.5 5-5 2h-3l-2 2-7 2-10 5-20 14q-3-1-2 2l-5 3-13 11-10 10h-1l3-5 13-14 2-4v-4l-2-4-6-5h-4l-1 1-6 1-8 4h-2l-2 2h-2l-2 2-15 5-3 3-1 3v3l3 5-1 7-5 9v2l-3 3q-3 7-8 13l-9 17-18 26-4 4-1 3 1 6 5 4 3 1 6-3 13 1 1 1 9-3v-1l17-23 22-25 15-15 21-18 19-12 17-7h17l1 1q8 0 13-5l5-7v-6l-1-3-5-9-10-5zm115.5-5h23l7 3h3q10.96 4.54 17.5 13.5l4 9v2.5l5.5-2h5l12.5 5q-1.12 2.67 1.5 2l4.5 3.5 1.5 2.5 4.5 2.5q-.75 2.25 1.5 1.5l19.5 19.5v1.5q2.67-1.12 2 1.5l6.5 7.5 2.5 1.5q-.75 2.25 1.5 1.5l2.5 5q2.67-1.12 2 1.5 3.4 2.6 2 10l-3.5 4.5h-8q-.5-2.5-4-2l-6-6-3.5-1q.75 3-1.5 4-2.17 1.83-7 1l-7.5-6.5-.5-1.5-3 4q-1.83 1.67-6 1l-7-6h-2l-1.5 1.5 8 8v6l1.5.5 13 10 3 1 5.5 5.5 1 4-1 3-2.5 2.5h-15l-4-2-9-2-14-9-7-3-16-11-6-2-9 9-21 17-17 11h-2l-3 3-9 4-2 2h-2l-2 2h-2l-9 5h-3l-7 4h-3l-6 3-11 2-3 2h-6l-1 1q-4.75-1.25-6 1h-18l-4-2h-4l-6-3-9.5-9.5-1-6-1-1v-19l1-1 1-8q3.46-3.54 4-10l3-4 1-4 6-10v-2l15-19V323l3-1.5 10.5-11.5 14-12 22-15 34-16h4l2-2q5.3.8 7-2l10-1zm2.5 6-1 1q-5-1-7 1-1 2-2 0l-27 9-22 11-32 23-18 18-13 18v2l-5 7-6 12v3l-2 3-2 6v4l-1 1v15l4 9 10 6 8 1 1 1h13l1-1h6l1-1 9-1 4-2 9-2 23-10h2l11-7 11-5 12-8 11-8 12-11q2 1 1-2h2l6-6-8-5h-12q-2 2-5 2l-30 21-9 5-6 1-1 1-5-2-18 6h-10l-7-3-4-3-2-6 1-7 3-6 9-12 22-21 29-21 11-5 6-1 4-2h4l1-1h15l6 2 4 5 1 3-1 6-2 3 1 1 31-22-1-5-3-6-8-9-12-5q-4 1-4-1zm59 26-9 4-30 22-3 1-4 4 55 34v-1l-8-8h-2v-1l-4-4-1-7 3-2 6 7 3-4q-1-5 1-5-1-3 3-2l5 11q1 3 5 3 2-2 1-8l2-4 14 15h1l-2-3v-7l2-2 21 16q3 1 4-1l-5-8-33-35q-3 1-2-2h-1l-11-10-4-2zm-63 7-4 2-7 1-11 4-23 15-14 11q-4 1-3 4l-3 1-11 12q1 2-1 1l-8 11-3 8 1 3 7 4h9l15-6 1-4 3-4 27-25q2 1 1-2h2l7-6 14-8h12l3-3-1-3v-4l3-5-1-4h-2l-6-3zm4 27-15 8-27 23q-8 5-12 14v1h5q1-2 5-2l30-21 9-5q3 1 4-1h12q0 2 4 1 23 11 43 26l8 4h2l2 2 15 5h7v-2l-7-4-10-8-21-13-3-3-7-3-26-17h-2l-10-5zm-516.5-58h12q1.35 2.25 5.5 1v1.5l-4.5 4.5-17 13-3 1-31 22-20 11-12 8-38 19-8 3H176v-2.5l4-7 16.5-18.5 29-23 3-1 3-3 24-15 4-1 18-9 6-2h4l1-1h7zm1.5 6-1 1h-6l-1 1h-4l-6 2-20 9-29 18-30 24-6 7-4 4h1l22-10 2-2 28-15 25-17 3-1 9-7 3-1 15-12z"/><path fill="#fdfbfb" d="M261.5 426h45l1 1h16l1 1 9.5.5-5 13v3l-4 12-3 6v3l-2 2-4 13-2 3-3 10-4 7v2l-4 6v2l-10 19-10 15-8 9v1.5l-3 1.5-6.5 7.5H264q1.13 2.67-1.5 2l-14 10-13 6h-3l-5 2h-6l-1 1-17 1-1-1-16-1-1-1h-4l-8-3h-3l-4-2h-3l-30-14-12.5-10.5V552q-2.67 1.13-2-1.5l-4-5-7-16q.75-3.25-1-4v-15l1-1 1-9 2-2 3-9 7-11 10.5-11.5 23-16h2l2-2h2l2-2h2l5-3 20-6 2-2h4l5-2h4l1-1 9-1 1-1h5l1-1h6l1-1h6l1-1h11l1-1h13zm4.5 5-4 2-24 1-1 1h-6l-1 1h-6l-6 2h-6l-5 2h-4l-4 2h-5l-3 2-19 6-13 7h-2l-21 15-14 16-6 13-1 6-1 1v4l-1 1v11l3 10q4 9 10 16l12 9h2l12 7 12 4 3 2 9 2 7 3 12 1 1 1h9l3 2 4-2h8l1-1 10-1 16-7 12-8 14-15q-1-3 2-2l7-9 1-4 8-11v-2l2-2 8-16 1-5 3-4 1-5 5-10 6-19 3-5v-3l5-16-2-1h-16l-4-2z"/><path fill="#ac737d" d="m736.5 91 15.5.5-15.5.5zm-67 1 36.5.5-36.5.5zm-98 52 .5 1.5-4 3q2.25 1.25-.5 2.5l-1.5-1.5zm2 0 4.5 4.5-.5.5-4.5-4.5zm45 2 .5 1.5-4.5 5.5.5-1.5q-.5-3 1.5-3.5 2.46.67 2-2m-43 3 .5 1.5-4.5 4.5-1.5-1.5q1.25-2.75 2.5-.5l2.5-2.5zm4 5 .5.5-3.5 3.5-1-2 1.5.5q-.75-2.25 1.5-1.5zm33 13 4.5 4.5-.5.5q-2.62.67-1.5-2h-2v-1.5zm-175 5 .5.5-20.5 20.5-.5-.5zm-47 10 .5.5-5.5 5.5-.5-.5zm191 1 2.5 1.5-7.5.5v-1q4 1 5-1m-113 3 1.5.5-2 .5q1.13 2.67-1.5 2l-7 7H458v2q-2.67-1.12-2 1.5l-2 2 .5.5q3.75-.75 4.5 1.5l-1.5-.5q-3.75.75-4.5-1.5l5.5-6.5zm-54 10 .5.5-4.5 4.5-.5-.5zm108 3 1.5 2.5-1.5-.5-3 3-.5-.5zm55 0 4.5 3.5-1.5.5-2.5-1-.5-2-1.5.5zm-59 2 .5.5-4.5 4.5-.5-.5zm55 2 4.5 4.5-.5.5-2.5-1.5-1.5-2.5-1.5.5zm-44 1 2.5 1.5-1.5 1.5-1-1-2 2-.5-.5zm35 0 3 3 1-1 2.5 2.5q-2.25 1.25.5 2.5l2.5 1.5-1.5.5-8.5-8.5zm-50 3 .5.5-3.5 3.5-2 1-.5-.5 3.5-3.5zm4 2 1 1 1.5-.5-4.5 3.5v-1l1.5-.5q-2.25-1.25.5-2.5m47 2-.5 1.5 1.5 1.5q2.25-.75 1.5 1.5l.5 1.5-4.5-4.5zm-43 2 1.5 1.5-3 3-.5 1.5-.5-1.5 1-2.5 2-.5zm-226 54 12.5.5-12.5.5zm329 41 .5.5-5.5 5.5-.5-.5zm-429 15 .5.5-6.5 6.5-.5-.5zm309 3 .5.5-7.5 7.5-.5-.5zm130 1 .5.5-4.5 4.5-.5-.5zm232 6q3-.5 3.5 1.5l-1.5-.5q-3-.5-3.5 1.5l-.5 2.5-.5-2.5zm-241 2 .5.5-15.5 15.5-.5-.5zm-20 21 .5.5-5.5 5.5-.5-.5zm218 2 .5.5-6.5 6.5-.5-.5zm-689 14 4.5 4.5-.5.5-4.5-4.5zm261 12 4.5 4.5-.5.5-4.5-4.5zm-265 82 .5.5-6.5 6.5-.5-.5zm-13 85 7.5 7.5-.5.5-7.5-7.5zm158 2 .5.5-11.5 11.5-.5-.5z"/><path fill="#ef8734" d="m610.5 125 7.5.5q-2.25 1.25.5 2.5 3.33-1.12 2.5 1.5l1.5-.5q2.63-.67 1.5 2h-4v3q3.83-.75 5 2.5l-5 9.5h-2q1.12 2.67-1.5 2l-5.5 10.5v7l2 4.5h2q-1.12 2.67 1.5 2 3.54 5.32 9.5 7v2q2.67-1.13 2 1.5-2 1 0 2v2.5l2 .5v5.5l-2 .5 1 2-2 3 .5 1.5H626q1.13 2.67-1.5 2l-6 4H616q1.31 3.33-3.5 2l-4 3h-3l-2 2q-4.6-.6-6 2-5.75-1.25-7 2H582l-.5 2h-7l1-2q2.25.75 1.5-1.5 7.66-6.84 11-18v-3l2-5v-15l-1-1v-4l-2-6-3-4-2-6-8.5-9.5-10.5-7.5 3.5-2.5q6 1 8-2h6l2-2 10-1 6-2h8zm-121 46 .5 3.5-1 1v13l1 1v4l1 1 1 6 7 11 1 3.5q-4.25 1-5.5-2h-6q-1.7-2.8-7-2l-12-5h-4l-2-2h-4q-1.25-2.75-5.5-2.5l2-3.5h2q-1.12-2.67 1.5-2l7-7h1.5v-2h2q-1.12-2.67 1.5-2l3.5-2q-1.12-2.67 1.5-2zm-3 106 9.5.5-9.5.5zm328 71 8.5.5-8.5.5zm-490 62 16.5.5-16.5.5zm37 17 19.5.5-19.5.5z"/></svg>